<svg width="25" height="18" viewBox="0 0 25 18" fill="none" xmlns="http://www.w3.org/2000/svg"><path fill-rule="evenodd" clip-rule="evenodd" d="M.639 16.64h24v-1.28h-24v1.28Z" fill="#CC0001"/><path fill-rule="evenodd" clip-rule="evenodd" d="M.639 12.8h24v-1.28h-24v1.28ZM.639 15.36h24v-1.28h-24v1.28ZM.639 10.24h24V8.96h-24v1.28Z" fill="#fff"/><path fill-rule="evenodd" clip-rule="evenodd" d="M.639 8.96h24V7.68h-24v1.28Z" fill="#CC0001"/><path fill-rule="evenodd" clip-rule="evenodd" d="M.639 7.68h24V6.4h-24v1.28Z" fill="#fff"/><path fill-rule="evenodd" clip-rule="evenodd" d="M.639 6.4h24V5.12h-24V6.4Z" fill="#CC0001"/><path fill-rule="evenodd" clip-rule="evenodd" d="M.639 5.12h24V3.84h-24v1.28Z" fill="#fff"/><path fill-rule="evenodd" clip-rule="evenodd" d="M.639 3.84h24V2.56h-24v1.28Z" fill="#CC0001"/><path fill-rule="evenodd" clip-rule="evenodd" d="M.639 2.56h24V1.28h-24v1.28Z" fill="#fff"/><path fill-rule="evenodd" clip-rule="evenodd" d="M.639 1.28h24V0h-24v1.28ZM.639 14.08h24V12.8h-24v1.28Z" fill="#CC0001"/><path fill-rule="evenodd" clip-rule="evenodd" d="M.639 17.92h24v-1.28h-24v1.28Z" fill="#fff"/><path fill-rule="evenodd" clip-rule="evenodd" d="M.639 11h11V0h-11v11Z" fill="#010066"/><path fill-rule="evenodd" clip-rule="evenodd" d="M6.639 8.566c-1.646.937-3.704.304-4.593-1.394-.889-1.7-.275-3.822 1.372-4.74 1.016-.567 2.134-.578 3.149-.02a2.947 2.947 0 0 0-1.64.035C3.307 2.941 2.376 4.71 2.848 6.4c.473 1.687 2.17 2.658 3.79 2.166Z" fill="#FC0"/><path fill-rule="evenodd" clip-rule="evenodd" d="m8.788 4.722 1.367-.76L9.07 5.076l1.57-.106-1.473.542 1.46.572-1.567-.137 1.062 1.134-1.35-.788.453 1.473-.867-1.283L8.111 8 7.9 6.476l-.894 1.265.485-1.463-1.368.76 1.087-1.113-1.57.106 1.474-.541-1.462-.573 1.568.137-1.062-1.133 1.35.787-.452-1.472.866 1.283L8.167 3l.211 1.524.896-1.265-.486 1.463Z" fill="#FC0"/><path fill-rule="evenodd" clip-rule="evenodd" d="M.639 11.52h24v-1.28h-24v1.28Z" fill="#CC0001"/></svg>