<svg width="26" height="18" viewBox="0 0 26 18" fill="none" xmlns="http://www.w3.org/2000/svg"><path fill-rule="evenodd" clip-rule="evenodd" d="M1.08 18h24V0h-24v18Z" fill="#fff"/><path fill-rule="evenodd" clip-rule="evenodd" d="M1.08 9h24V0h-24v9Z" fill="#EF3340"/><mask id="a" style="mask-type:alpha" maskUnits="userSpaceOnUse" x="0" y="0" width="25" height="18"><rect x=".984" width="24" height="18" rx="2" fill="#fff"/></mask><g mask="url(#a)"><path fill="#0A17A7" d="M.984 0h24v18h-24z"/><path fill-rule="evenodd" clip-rule="evenodd" d="m6.705 12-8.098 5.735 1.279 1.99 10.242-7.254V19.2h5.714V12.47l10.242 7.254 1.278-1.99L19.264 12h5.72V6h-5.72L27.363.265l-1.278-1.99L15.842 5.53v-6.73h-5.714v6.73L-.114-1.725-1.393.265 6.705 6H.985v6h5.72Z" fill="#fff"/><path d="M16.985 5.699 27.841-1.8M18.138 12.328l9.732 6.887M7.846 5.68l-10.15-7.184M8.947 12.244-2.305 20.08" stroke="#DB1F35" stroke-width=".667" stroke-linecap="round"/><path fill-rule="evenodd" clip-rule="evenodd" d="M.984 10.8H11.27V18H14.7v-7.2h10.285V7.2H14.7V0H11.27v7.2H.984v3.6Z" fill="#E6273E"/></g></svg>