<svg xmlns="http://www.w3.org/2000/svg" fill="none" viewBox="0 0 170 41"><path fill="#E03C31" d="m39.255 27.537-2.046-2.048 2.046-2.046a4.16 4.16 0 0 0 0-5.875l-7.191-7.191V6.98c0-1.165-.854-2.157-1.985-2.306a2.298 2.298 0 0 0-1.811.548c-.25.22-.447.487-.579.783l-4.354-4.337a4.035 4.035 0 0 0-5.696.002L1.716 17.568a4.16 4.16 0 0 0 0 5.875l2.049 2.048-.665.662-.598.599-.01.01-.776.775a4.156 4.156 0 0 0 0 5.875l5.797 5.797c.738.738 1.707 1.215 2.748 1.276a4.128 4.128 0 0 0 3.195-1.21l5.762-5.746a1.815 1.815 0 0 1 2.566.002l5.733 5.744a4.137 4.137 0 0 0 3.196 1.21c1.04-.063 2.01-.54 2.748-1.276l5.797-5.797a4.162 4.162 0 0 0-.003-5.875ZM3.489 21.67a1.651 1.651 0 0 1 0-2.334L19.203 3.62c.71-.71 1.856-.71 2.566 0l15.713 15.716c.644.644.644 1.69 0 2.334l-2.046 2.046L23.363 11.63a4.035 4.035 0 0 0-5.701-.005L5.538 23.72 3.489 21.67Zm29.515 4.48-1.342 1.342a1.725 1.725 0 0 1-1.1.52c-.48.03-.938-.144-1.274-.48l-5.95-5.94a4.034 4.034 0 0 0-5.699 0l-5.95 5.943a1.64 1.64 0 0 1-1.168.482c-.44 0-.856-.171-1.167-.482L7.311 25.49l11.917-11.906a1.812 1.812 0 0 1 2.566.002L33.67 25.49l-.666.662Zm4.48 5.492-5.822 5.822a1.726 1.726 0 0 1-1.1.52c-.48.03-.938-.144-1.274-.48l-5.953-5.94a4.03 4.03 0 0 0-5.696 0l-5.953 5.94c-.336.336-.793.51-1.273.48a1.726 1.726 0 0 1-1.102-.52L3.49 31.642a1.65 1.65 0 0 1 0-2.334l.776-.776 1.273-1.27 1.977 1.978c.738.737 1.708 1.215 2.749 1.275a4.128 4.128 0 0 0 3.195-1.21l5.759-5.75a1.815 1.815 0 0 1 2.566.002l5.733 5.748a4.137 4.137 0 0 0 3.196 1.21c1.04-.063 2.01-.54 2.748-1.275l.358-.359 1.622-1.622 2.046 2.052a1.65 1.65 0 0 1-.003 2.33Z"/><path fill="#0E2638" d="M68.612 12.019H64a.813.813 0 0 0-.813.813v15.11c0 .45.363.813.813.813h4.612c4.13 0 7.477-3.746 7.477-8.368 0-4.62-3.35-8.368-7.477-8.368Zm-.68 13.99H66.6a.406.406 0 0 1-.407-.406V15.17c0-.225.182-.407.407-.407h1.334c2.773 0 5.023 2.518 5.023 5.623 0 3.107-2.248 5.622-5.023 5.622ZM106.293 16.83a6.11 6.11 0 1 0 0 12.22 6.11 6.11 0 0 0 0-12.22Zm0 9.371c-1.758 0-3.183-1.46-3.183-3.26 0-1.802 1.425-3.261 3.183-3.261 1.758 0 3.182 1.46 3.182 3.26-.002 1.801-1.427 3.261-3.182 3.261ZM97.788 19.723c-.732 0-1.465.36-1.881 1.212-.29.593-.387 1.424-.387 2.536l.005 5.082a.203.203 0 0 1-.202.202h-2.601a.203.203 0 0 1-.203-.202v-11.23c0-.111.091-.202.203-.202h2.387c.11 0 .202.09.202.202v2.071c0 .111.09.202.202.202.11 0 .179-.078.21-.187.204-.704.525-1.56 1.186-2.109a1.986 1.986 0 0 1 1.27-.432c.382 0 .794.094 1.213.362a.197.197 0 0 1 .089.169v2.543c0 .111-.091.202-.202.202a.216.216 0 0 1-.114-.035c-.346-.195-.796-.387-1.377-.387ZM147.32 19.723c-.732 0-1.465.36-1.882 1.212-.29.593-.386 1.424-.386 2.536l.005 5.082a.203.203 0 0 1-.202.202h-2.599a.203.203 0 0 1-.202-.202v-11.23c0-.111.091-.202.202-.202h2.387c.111 0 .202.09.202.202v2.071c0 .111.091.202.202.202.111 0 .179-.078.209-.187.205-.704.526-1.56 1.188-2.109a1.984 1.984 0 0 1 1.27-.432c.381 0 .793.094 1.212.362a.197.197 0 0 1 .089.169v2.543a.203.203 0 0 1-.202.202.217.217 0 0 1-.114-.035c-.348-.195-.798-.387-1.379-.387ZM169.527 17.12h-2.723a.207.207 0 0 0-.192.135s-1.088 3.101-1.644 4.678c-.288.823-.778 2.205-1.043 3.233a.206.206 0 0 1-.397.002c-.278-1.028-.788-2.412-1.091-3.246l-1.705-4.67a.2.2 0 0 0-.189-.131h-2.726a.203.203 0 0 0-.187.28l4.512 11.354-1.766 4.415a.203.203 0 0 0 .187.278h2.639a.205.205 0 0 0 .19-.129l6.324-15.92a.168.168 0 0 0 .016-.074.208.208 0 0 0-.205-.204ZM153.635 19.902c0-.111.091-.202.202-.202h2.409a.203.203 0 0 0 .202-.202v-2.17a.203.203 0 0 0-.202-.202h-2.687a.203.203 0 0 1-.202-.202v-2.708a.203.203 0 0 0-.202-.202h-2.324a.203.203 0 0 0-.202.202v11.01c0 2.84 1.382 3.822 3.182 3.822 1.145 0 1.827-.349 2.11-.485a.22.22 0 0 0 .133-.212l-.005-1.763c0-.14-.128-.25-.295-.187-.366.136-.675.224-1.048.224-.538 0-1.069-.252-1.069-1.245v-5.478h-.002ZM121.228 28.997c2.998 0 5.456-2.616 5.456-6.06 0-3.44-2.458-6.059-5.456-6.059-2.523 0-3.554 1.698-3.794 2.188a.203.203 0 0 1-.189.12.203.203 0 0 1-.202-.201V17.32a.203.203 0 0 0-.202-.202h-2.387a.203.203 0 0 0-.202.202v15.92c0 .112.091.203.202.203h2.602a.203.203 0 0 0 .202-.202v-.78c0-3.85-.218-5.378-.218-5.583a.203.203 0 0 1 .387-.086c.495.983 1.695 2.205 3.801 2.205Zm-.735-2.796c-1.758 0-3.182-1.46-3.182-3.26 0-1.802 1.424-3.262 3.182-3.262s3.183 1.46 3.183 3.261c-.003 1.799-1.427 3.261-3.183 3.261ZM134.208 16.83c-3.375 0-5.857 2.736-5.857 6.11 0 3.375 2.576 6.11 6.084 6.11 1.9 0 3.35-.662 4.319-1.44a.206.206 0 0 0 .041-.28l-1.079-1.49a.202.202 0 0 0-.283-.046c-.479.311-1.179.864-2.768.864-1.341 0-2.536-.783-3.099-2.018-.053-.119-.131-.288-.131-.366 0-.111.091-.202.202-.202h7.474c.325 0 .8-.222.828-.796.182-3.6-1.821-6.446-5.731-6.446Zm2.576 5.166h-5.243a.203.203 0 0 1-.202-.202c0-.05.048-.223.093-.362.427-1.32 1.498-2.099 2.933-2.099 1.209 0 2.114.604 2.584 1.529.133.265.245.606.245.725a.413.413 0 0 1-.41.409ZM85.215 28.997c2.998 0 5.455-2.616 5.455-6.06 0-3.44-2.457-6.059-5.455-6.059-2.524 0-3.554 1.698-3.794 2.188a.204.204 0 0 1-.19.12.203.203 0 0 1-.202-.201V17.32a.203.203 0 0 0-.202-.202H78.44a.203.203 0 0 0-.202.202v15.92c0 .112.091.203.202.203h2.602a.203.203 0 0 0 .202-.202v-.78c0-3.85-.217-5.378-.217-5.583 0-.111.09-.202.202-.202.111 0 .17.086.184.116.493.983 1.695 2.205 3.802 2.205Zm-.735-2.796c-1.758 0-3.183-1.46-3.183-3.26 0-1.802 1.425-3.262 3.183-3.262 1.758 0 3.182 1.46 3.182 3.261-.002 1.799-1.427 3.261-3.182 3.261ZM53.682 12.019H49.07a.813.813 0 0 0-.813.813v15.11c0 .45.364.813.813.813h4.612c4.13 0 7.477-3.746 7.477-8.368 0-4.62-3.347-8.368-7.477-8.368Zm-.68 13.99H51.67a.406.406 0 0 1-.406-.406V15.17c0-.225.181-.407.406-.407h1.334c2.773 0 5.024 2.518 5.024 5.623 0 3.107-2.248 5.622-5.024 5.622Z"/></svg>